<?xml version='1.0' encoding='utf-8'?>
<svg xmlns="http://www.w3.org/2000/svg" width="1024" height="1024" viewBox="0 0 1024 1024" preserveAspectRatio="none">
  <g id="skeleton-shapes">
    <path id="path-1-1" d="M 429.12 485.38 C 422.56 473.77, 416.94 460.94, 409.17 450.11 C 391.95 426.12, 371.50 403.42, 353.50 380.00 C 353.22 379.63, 354.78 379.38, 354.50 379.00 C 343.41 363.82, 330.66 349.17, 319.77 333.85 C 312.76 323.99, 306.06 313.28, 300.25 302.67 C 296.72 296.22, 294.09 288.96, 291.46 282.09 C 289.61 277.26, 287.78 272.14, 286.62 267.10 C 284.85 259.39, 283.05 251.22, 282.55 243.33 C 281.71 229.92, 281.69 215.87, 282.55 202.47 C 283.05 194.75, 284.42 186.46, 286.69 179.06 C 290.38 167.02, 295.34 154.75, 300.67 143.33 C 303.42 137.43, 307.42 131.71, 311.25 126.44 C 316.40 119.37, 322.03 112.15, 328.00 105.75 C 334.03 99.28, 340.89 93.08, 347.67 87.40 C 352.39 83.43, 357.66 79.63, 362.93 76.43 C 370.85 71.63, 379.28 66.87, 387.72 63.08 C 397.51 58.69, 408.01 53.75, 418.50 51.50 C 433.14 48.36, 449.03 47.21, 464.00 46.71 C 473.14 46.41, 482.80 47.72, 491.85 49.09 C 500.06 50.33, 508.56 52.28, 516.52 54.66 C 524.49 57.04, 532.58 60.23, 540.21 63.54 C 545.89 65.99, 551.66 68.94, 556.94 72.13 C 564.78 76.86, 572.76 82.08, 580.07 87.60 C 584.93 91.27, 589.56 95.70, 593.88 100.00 C 598.23 104.35, 602.71 109.00, 606.43 113.90 C 612.06 121.30, 617.41 129.37, 622.26 137.30 C 625.44 142.50, 628.47 148.16, 630.84 153.78 C 633.99 161.22, 637.01 169.15, 639.06 176.96 C 641.28 185.43, 642.93 194.51, 643.81 203.22 C 644.68 211.71, 644.66 220.66, 644.37 229.19 C 644.11 236.90, 643.35 244.93, 642.17 252.56 C 641.34 257.86, 639.88 263.31, 638.29 268.43 C 635.93 276.02, 633.49 283.99, 630.15 291.20 C 626.22 299.68, 621.18 308.06, 616.25 316.00 C 613.03 321.18, 609.34 326.44, 605.37 331.07 C 597.58 340.13, 589.18 349.28, 580.56 357.56 C 554.05 383.04, 526.07 408.62, 498.88 433.38 C 489.09 442.29, 479.04 451.73, 468.43 459.64 C 457.89 467.50, 442.11 487.46, 429.12 485.38 C 418.40 483.65, 414.52 459.56, 409.17 450.11" fill="none" stroke="black" stroke-width="45" stroke-linecap="round" stroke-linejoin="round" />
    <path id="path-2-1" d="M 429.12 485.38 C 421.68 493.48, 414.73 502.70, 406.50 510.00 C 376.71 536.43, 344.14 561.48, 314.00 587.50 C 288.41 609.59, 262.02 632.47, 237.58 655.83 C 228.37 664.64, 219.54 674.86, 211.92 685.08 C 206.33 692.59, 201.20 701.28, 197.36 709.82 C 193.02 719.49, 189.39 730.21, 186.98 740.54 C 184.66 750.52, 183.88 761.29, 183.00 771.50 C 182.58 776.40, 182.61 781.60, 183.00 786.50 C 183.85 797.03, 184.86 807.98, 186.77 818.38 C 188.90 829.97, 191.50 842.08, 195.25 853.25 C 198.30 862.34, 202.87 871.42, 207.41 879.86 C 211.82 888.08, 216.71 896.69, 222.50 904.00 C 229.91 913.36, 238.66 922.47, 247.50 930.50 C 254.12 936.51, 262.03 941.64, 269.46 946.62 C 274.83 950.23, 280.56 954.10, 286.50 956.67 C 298.45 961.84, 311.25 966.52, 323.77 970.12 C 331.38 972.30, 339.72 973.40, 347.60 974.21 C 360.20 975.50, 373.33 976.36, 386.00 976.50 C 412.06 976.79, 438.95 976.26, 465.00 975.50 C 477.86 975.13, 491.14 974.24, 503.96 973.06 C 511.42 972.38, 519.31 971.68, 526.57 969.86 C 540.04 966.47, 553.80 962.03, 566.83 957.25 C 576.00 953.89, 585.22 949.55, 593.94 945.18 C 602.20 941.03, 610.66 936.40, 618.42 931.38 C 631.08 923.16, 643.99 914.28, 655.90 905.00 C 665.75 897.33, 675.05 888.33, 684.35 880.00 C 685.94 878.58, 687.82 877.15, 689.00 875.38 C 696.75 863.73, 703.99 851.25, 711.38 839.38" fill="none" stroke="black" stroke-width="45" stroke-linecap="round" stroke-linejoin="round" />
    <path id="path-3-1" d="M 429.12 485.38 C 433.49 488.06, 439.56 489.75, 442.75 493.75 C 532.80 606.69, 622.73 725.32, 711.38 839.38" fill="none" stroke="black" stroke-width="45" stroke-linecap="round" stroke-linejoin="round" />
    <path id="path-4-1" d="M 711.38 839.38 L 780.41 926.19" fill="none" stroke="black" stroke-width="45" stroke-linecap="round" stroke-linejoin="round" />
    <path id="path-5-1" d="M 711.38 839.38 C 716.29 836.16, 722.51 833.81, 726.50 829.50 C 729.99 825.74, 730.68 819.79, 733.50 815.50 C 736.47 810.98, 741.04 807.43, 744.00 802.90 C 745.07 801.26, 744.48 798.83, 745.50 797.17 C 746.82 795.02, 749.46 793.83, 750.87 791.74 C 757.28 782.25, 763.10 771.94, 769.13 762.20" fill="none" stroke="black" stroke-width="45" stroke-linecap="round" stroke-linejoin="round" />
    <path id="path-6-1" d="M 769.13 762.20 C 773.27 755.31, 777.17 747.97, 781.68 741.32 C 783.17 739.12, 785.97 737.82, 787.25 735.50 C 791.95 726.96, 795.97 717.61, 799.70 708.60 C 806.08 693.19, 812.39 677.15, 817.90 661.40 C 820.47 654.08, 821.70 646.09, 824.18 638.73 C 824.76 637.02, 826.65 635.85, 827.10 634.10 C 829.18 626.11, 829.38 617.41, 831.77 609.50 C 833.85 602.61, 839.94 596.50, 840.63 589.33 C 841.27 582.73, 837.25 575.69, 835.65 569.25" fill="none" stroke="black" stroke-width="45" stroke-linecap="round" stroke-linejoin="round" />
    <path id="path-7-1" d="M 780.41 926.19 C 780.32 925.99, 774.78 914.08, 774.94 914.22 C 781.68 919.77, 788.68 928.06, 792.31 936.00 C 792.34 936.07, 780.46 926.26, 780.41 926.19 C 772.16 916.04, 765.25 904.30, 757.79 893.54" fill="none" stroke="black" stroke-width="45" stroke-linecap="round" stroke-linejoin="round" />
  </g>
</svg>