<?xml version='1.0' encoding='utf-8'?>
<svg xmlns="http://www.w3.org/2000/svg" width="1024" height="1024" viewBox="0 0 1024 1024" preserveAspectRatio="none">
  <g id="skeleton-shapes">
    <path id="path-1-1" d="M 968.17 147.57 C 960.39 146.56, 952.35 144.55, 944.50 144.50 C 739.66 143.21, 528.60 143.36, 323.76 143.52 C 310.84 143.53, 296.23 141.36, 283.83 145.00 C 280.32 146.03, 284.35 154.06, 281.25 156.00 C 278.15 157.94, 271.40 150.68, 269.62 153.88 C 263.86 164.23, 261.82 179.37, 261.65 191.22 C 258.79 382.82, 266.98 580.44, 260.41 771.95 C 260.07 781.95, 246.73 790.67, 240.83 798.75" fill="none" stroke="black" stroke-width="45" stroke-linecap="round" stroke-linejoin="round" />
    <path id="path-2-1" d="M 240.83 798.75 C 230.02 805.80, 219.78 816.54, 207.50 820.50 C 207.44 820.52, 199.69 812.04, 199.75 812.00 C 206.67 807.48, 235.26 792.64, 240.83 798.75 C 244.54 802.82, 212.12 817.49, 207.50 820.50" fill="none" stroke="black" stroke-width="45" stroke-linecap="round" stroke-linejoin="round" />
    <path id="path-3-1" d="M 240.83 798.75 C 251.94 803.13, 266.51 804.57, 275.50 812.43 C 275.60 812.51, 270.97 825.05, 270.85 825.00 C 258.89 820.28, 253.65 799.66, 240.83 798.75 C 229.06 797.91, 217.38 814.05, 207.50 820.50" fill="none" stroke="black" stroke-width="45" stroke-linecap="round" stroke-linejoin="round" />
    <path id="path-4-1" d="M 240.83 798.75 C 242.71 803.78, 252.25 829.25, 252.25 829.25 C 252.25 829.25, 246.10 799.78, 240.83 798.75 C 229.76 796.58, 216.94 814.34, 207.50 820.50" fill="none" stroke="black" stroke-width="45" stroke-linecap="round" stroke-linejoin="round" />
    <path id="path-5-1" d="M 240.83 798.75 C 225.53 799.24, 201.90 809.18, 189.35 800.42 C 144.36 769.03, 111.15 719.43, 72.05 680.95 C 69.57 678.52, 65.20 678.41, 62.80 675.90 C 58.29 671.20, 55.23 664.90, 51.53 659.54" fill="none" stroke="black" stroke-width="45" stroke-linecap="round" stroke-linejoin="round" />
    <path id="path-6-1" d="M 240.83 798.75 C 231.88 795.72, 221.32 787.44, 212.00 789.00 C 211.69 789.05, 221.48 801.84, 221.78 801.94 C 223.82 802.63, 242.14 797.04, 240.83 798.75 C 233.04 808.86, 218.19 813.52, 207.50 820.50" fill="none" stroke="black" stroke-width="45" stroke-linecap="round" stroke-linejoin="round" />
    <path id="path-7-1" d="M 240.83 798.75 C 257.42 814.18, 274.43 848.99, 297.00 851.00 C 314.69 852.57, 333.14 820.45, 345.90 808.10 C 391.28 764.21, 438.35 719.02, 481.28 672.74 C 484.46 669.32, 483.85 662.68, 485.00 658.17" fill="none" stroke="black" stroke-width="45" stroke-linecap="round" stroke-linejoin="round" />
  </g>
</svg>