<?xml version='1.0' encoding='utf-8'?>
<svg xmlns="http://www.w3.org/2000/svg" width="1024" height="1024" viewBox="0 0 1024 1024" preserveAspectRatio="none">
  <g id="skeleton-shapes">
    <path id="path-1-1" d="M 429.12 485.38 C 422.56 473.77, 416.94 460.94, 409.17 450.11 C 391.95 426.12, 371.50 403.42, 353.50 380.00 C 353.22 379.63, 354.78 379.38, 354.50 379.00 C 343.42 363.83, 330.01 349.59, 319.77 333.85 C 309.25 317.67, 298.80 299.94, 291.46 282.09 C 286.57 270.19, 283.98 256.12, 282.55 243.33 C 281.08 230.21, 280.20 215.46, 282.55 202.47 C 286.13 182.72, 292.13 161.49, 300.67 143.33 C 307.03 129.79, 317.80 116.71, 328.00 105.75 C 338.05 94.95, 350.28 84.02, 362.93 76.43 C 380.08 66.15, 400.06 59.23, 418.50 51.50 C 419.04 51.27, 419.42 52.56, 420.00 52.50 C 434.51 50.97, 449.42 46.39, 464.00 46.71 C 481.26 47.10, 499.86 50.11, 516.52 54.66 C 530.30 58.43, 544.62 64.91, 556.94 72.13 C 569.91 79.73, 583.24 89.39, 593.88 100.00 C 604.65 110.75, 614.56 124.17, 622.26 137.30 C 629.30 149.29, 635.80 163.44, 639.06 176.96 C 643.05 193.55, 644.51 212.12, 644.37 229.19 C 644.26 241.99, 642.23 256.25, 638.29 268.43 C 633.05 284.61, 625.49 301.72, 616.25 316.00 C 606.53 331.01, 593.20 344.92, 580.56 357.56 C 554.60 383.52, 526.93 409.70, 498.88 433.38 C 478.37 450.68, 455.51 480.45, 429.12 485.38 C 420.42 487.00, 413.53 457.82, 409.17 450.11" fill="none" stroke="black" stroke-width="45" stroke-linecap="round" stroke-linejoin="round" />
    <path id="path-2-1" d="M 429.12 485.38 C 365.94 541.60, 298.34 597.00, 237.58 655.83 C 222.14 670.79, 206.54 690.37, 197.36 709.82 C 188.71 728.17, 184.97 751.31, 183.00 771.50 C 181.52 786.71, 184.50 803.26, 186.77 818.38 C 188.50 829.91, 190.76 842.48, 195.25 853.25 C 202.43 870.46, 210.90 889.40, 222.50 904.00 C 235.19 919.97, 252.38 935.48, 269.46 946.62 C 285.37 957.02, 305.36 965.40, 323.77 970.12 C 343.49 975.17, 365.64 976.17, 386.00 976.50 C 424.79 977.13, 465.38 977.17, 503.96 973.06 C 524.92 970.83, 547.03 964.46, 566.83 957.25 C 584.49 950.82, 602.72 941.70, 618.42 931.38 C 641.24 916.37, 664.94 899.21, 684.35 880.00 C 695.68 868.79, 702.55 852.64, 711.38 839.38" fill="none" stroke="black" stroke-width="45" stroke-linecap="round" stroke-linejoin="round" />
    <path id="path-3-1" d="M 429.12 485.38 C 433.49 488.06, 439.56 489.75, 442.75 493.75 C 532.80 606.69, 622.73 725.32, 711.38 839.38" fill="none" stroke="black" stroke-width="45" stroke-linecap="round" stroke-linejoin="round" />
    <path id="path-4-1" d="M 711.38 839.38 L 780.41 926.19" fill="none" stroke="black" stroke-width="45" stroke-linecap="round" stroke-linejoin="round" />
    <path id="path-5-1" d="M 711.38 839.38 C 716.21 836.22, 723.04 834.13, 726.50 829.50 C 742.23 808.48, 755.08 784.38, 769.13 762.20" fill="none" stroke="black" stroke-width="45" stroke-linecap="round" stroke-linejoin="round" />
    <path id="path-6-1" d="M 769.13 762.20 C 775.08 753.44, 782.64 745.03, 787.25 735.50 C 798.75 711.74, 808.85 686.20, 817.90 661.40 C 826.40 638.13, 835.95 613.66, 840.63 589.33 C 841.86 582.94, 837.22 575.57, 835.65 569.25" fill="none" stroke="black" stroke-width="45" stroke-linecap="round" stroke-linejoin="round" />
    <path id="path-7-1" d="M 780.41 926.19 C 780.32 925.99, 774.78 914.08, 774.94 914.22 C 775.01 914.27, 792.36 936.06, 792.31 936.00 C 780.78 922.10, 769.18 907.55, 757.79 893.54" fill="none" stroke="black" stroke-width="45" stroke-linecap="round" stroke-linejoin="round" />
  </g>
</svg>