<?xml version='1.0' encoding='utf-8'?>
<svg xmlns="http://www.w3.org/2000/svg" width="1024" height="1024" viewBox="0 0 1024 1024" preserveAspectRatio="none">
  <g id="skeleton-shapes">
    <path id="path-1-1" d="M 618.91 528.15 C 597.88 521.37, 576.57 510.46, 554.68 507.45 C 539.66 505.39, 521.25 508.27, 506.77 512.75 C 505.75 513.06, 511.87 519.64, 512.50 520.50" fill="none" stroke="black" stroke-width="45" stroke-linecap="round" stroke-linejoin="round" />
    <path id="path-2-1" d="M 618.91 528.15 C 640.87 542.94, 664.21 557.25, 685.50 573.00 C 694.81 579.88, 703.36 588.57, 711.60 596.70 C 715.70 600.74, 719.43 605.48, 723.00 610.00 C 723.14 610.18, 722.37 610.30, 722.50 610.50 C 727.06 617.52, 733.09 624.00, 736.93 631.43 C 742.58 642.35, 748.21 654.39, 751.34 666.28 C 755.77 683.11, 759.47 701.60, 760.00 719.00 C 760.72 742.44, 759.03 767.47, 755.13 790.60 C 752.30 807.41, 746.67 825.37, 739.48 840.83 C 732.21 856.46, 721.77 872.05, 711.00 885.50 C 700.48 898.64, 687.62 911.45, 674.50 922.00 C 660.73 933.07, 644.81 943.32, 629.08 951.38 C 612.57 959.83, 594.16 967.30, 576.30 972.30 C 561.49 976.45, 544.88 978.79, 529.50 979.25 C 508.82 979.86, 486.77 978.85, 466.34 975.57 C 447.41 972.53, 427.31 967.25, 409.56 960.00 C 387.26 950.89, 363.40 939.79, 343.95 925.58 C 333.75 918.12, 327.84 904.62, 320.14 894.61" fill="none" stroke="black" stroke-width="45" stroke-linecap="round" stroke-linejoin="round" />
    <path id="path-3-1" d="M 618.91 528.15 C 625.75 528.42, 633.70 531.01, 640.25 529.00 C 640.33 528.98, 633.33 523.75, 633.25 523.75 C 628.34 523.55, 623.72 529.15, 618.91 528.15 C 597.17 523.64, 575.82 514.26, 554.68 507.45" fill="none" stroke="black" stroke-width="45" stroke-linecap="round" stroke-linejoin="round" />
    <path id="path-4-1" d="M 618.91 528.15 C 622.22 515.60, 630.30 501.93, 629.22 489.00 C 629.21 488.87, 616.10 493.87, 616.06 494.00 C 613.97 501.96, 626.95 526.38, 618.91 528.15 C 598.64 532.59, 574.44 513.82, 554.68 507.45" fill="none" stroke="black" stroke-width="45" stroke-linecap="round" stroke-linejoin="round" />
    <path id="path-5-1" d="M 618.91 528.15 C 626.20 508.34, 629.43 484.62, 641.33 467.19 C 649.61 455.05, 667.38 451.10, 678.26 441.22 C 690.75 429.88, 702.78 416.25, 712.54 402.50 C 719.97 392.03, 725.95 379.37, 730.65 367.42 C 735.29 355.59, 739.38 342.37, 741.09 329.78 C 743.82 309.75, 745.01 288.31, 744.15 268.12 C 743.34 248.85, 740.02 228.70, 736.00 209.83 C 733.32 197.26, 728.96 184.19, 723.79 172.43 C 717.69 158.55, 710.19 144.26, 701.67 131.72 C 693.80 120.11, 684.16 108.33, 673.83 98.83 C 663.30 89.15, 650.58 80.16, 638.04 73.25 C 623.69 65.34, 607.51 58.40, 591.83 53.65 C 576.01 48.87, 558.57 45.75, 542.12 44.23 C 525.67 42.72, 507.98 42.62, 491.57 44.43 C 471.21 46.67, 449.85 50.77, 430.20 56.56 C 412.90 61.66, 394.87 68.92, 379.05 77.60 C 362.87 86.48, 348.23 99.24, 333.12 109.84" fill="none" stroke="black" stroke-width="45" stroke-linecap="round" stroke-linejoin="round" />
    <path id="path-6-1" d="M 320.14 894.61 C 330.12 895.56, 340.48 897.82, 350.50 897.50 C 350.52 897.50, 339.02 894.00, 339.00 894.00 C 338.94 893.99, 320.08 894.59, 320.14 894.61 C 329.67 897.51, 340.58 896.56, 350.50 897.50" fill="none" stroke="black" stroke-width="45" stroke-linecap="round" stroke-linejoin="round" />
    <path id="path-7-1" d="M 320.14 894.61 C 318.82 891.38, 318.39 887.04, 316.00 884.50 C 315.90 884.39, 304.45 877.87, 304.50 878.00 C 306.94 883.96, 314.21 892.10, 320.14 894.61 C 329.19 898.45, 340.71 896.57, 350.50 897.50" fill="none" stroke="black" stroke-width="45" stroke-linecap="round" stroke-linejoin="round" />
    <path id="path-8-1" d="M 320.14 894.61 C 321.07 899.61, 320.88 905.38, 323.00 910.00 C 323.02 910.04, 329.49 914.98, 329.48 914.94 C 328.48 909.54, 315.92 898.11, 320.14 894.61 C 326.75 889.13, 341.96 896.69, 350.50 897.50" fill="none" stroke="black" stroke-width="45" stroke-linecap="round" stroke-linejoin="round" />
    <path id="path-9-1" d="M 320.14 894.61 C 316.92 895.66, 313.03 898.68, 309.71 898.00 C 309.68 897.99, 303.42 891.20, 303.45 891.20 C 319.03 891.01, 335.06 895.43, 350.50 897.50" fill="none" stroke="black" stroke-width="45" stroke-linecap="round" stroke-linejoin="round" />
    <path id="path-10-1" d="M 320.14 894.61 C 310.97 889.27, 299.65 885.53, 291.96 878.22 C 283.83 870.49, 277.68 859.20, 272.44 849.28 C 269.02 842.77, 269.27 834.41, 265.52 828.09 C 264.44 826.26, 260.04 828.82, 259.19 826.88 C 257.66 823.40, 259.50 818.56, 259.65 814.77" fill="none" stroke="black" stroke-width="45" stroke-linecap="round" stroke-linejoin="round" />
    <path id="path-11-1" d="M 333.12 109.84 C 333.13 109.84, 340.38 102.83, 340.38 102.84 C 340.32 102.92, 328.02 116.06, 328.09 116.00 C 337.59 109.01, 346.03 100.04, 354.84 92.20" fill="none" stroke="black" stroke-width="45" stroke-linecap="round" stroke-linejoin="round" />
    <path id="path-12-1" d="M 333.12 109.84 C 321.38 122.01, 308.49 133.90, 297.50 146.75 C 295.54 149.04, 296.34 153.15, 294.23 155.31 C 292.26 157.31, 287.09 155.91, 286.00 158.50 C 284.77 161.42, 289.85 164.59, 289.05 167.66 C 288.49 169.77, 283.85 168.33, 282.90 170.30 C 281.55 173.09, 280.61 179.33, 282.06 182.06 C 283.08 184.00, 287.85 183.26, 290.00 183.70" fill="none" stroke="black" stroke-width="45" stroke-linecap="round" stroke-linejoin="round" />
  </g>
</svg>