<?xml version='1.0' encoding='utf-8'?>
<svg xmlns="http://www.w3.org/2000/svg" width="1024" height="1024" viewBox="0 0 1024 1024" preserveAspectRatio="none">
  <g id="skeleton-shapes">
    <path id="path-1-1" d="M 754.50 150.33 C 753.60 151.39, 750.88 156.67, 749.71 155.92 C 742.93 151.61, 737.90 143.32, 733.20 136.80 C 731.41 134.31, 731.82 130.37, 729.71 128.14 C 727.51 125.81, 723.45 125.85, 720.95 123.83 C 714.58 118.67, 709.97 110.82, 703.00 106.50 C 701.18 105.37, 698.73 110.27, 697.00 109.00 C 695.08 107.59, 697.86 103.55, 696.41 101.66 C 694.81 99.56, 691.06 99.91, 688.90 98.40 C 679.30 91.72, 670.78 82.82, 660.74 76.83 C 648.91 69.77, 635.60 63.35, 622.58 58.83 C 607.77 53.69, 591.49 49.33, 575.94 47.38 C 561.28 45.54, 545.07 45.32, 530.42 47.27 C 512.61 49.64, 495.03 56.56, 477.50 60.50 C 476.92 60.63, 476.54 59.26, 476.00 59.50 C 459.90 66.55, 442.92 73.52, 427.70 82.30 C 410.63 92.14, 393.39 103.70, 378.00 116.00 C 365.01 126.38, 352.54 138.82, 341.47 151.23 C 332.29 161.52, 323.85 173.38, 316.44 185.00 C 308.91 196.79, 301.60 209.62, 296.00 222.44 C 287.42 242.10, 278.64 263.02, 273.30 283.80 C 265.65 313.55, 260.22 345.29, 256.58 375.80 C 252.53 409.78, 245.90 446.70, 249.81 480.69 C 252.59 504.94, 267.96 528.07, 276.69 550.87" fill="none" stroke="black" stroke-width="45" stroke-linecap="round" stroke-linejoin="round" />
    <path id="path-2-1" d="M 276.69 550.87 C 271.46 559.54, 265.04 568.03, 260.78 577.22 C 260.77 577.23, 258.95 589.15, 258.95 589.14 C 265.48 578.33, 277.65 563.46, 276.69 550.87 C 274.90 527.30, 259.19 504.60, 250.83 482.50" fill="none" stroke="black" stroke-width="45" stroke-linecap="round" stroke-linejoin="round" />
    <path id="path-3-1" d="M 276.69 550.87 C 298.01 525.00, 318.72 497.17, 341.34 472.44 C 352.36 460.40, 365.19 447.62, 379.05 439.00 C 401.24 425.21, 426.55 412.49, 451.30 404.10 C 467.99 398.44, 487.96 396.06, 505.58 396.11 C 535.58 396.19, 567.17 399.45, 596.75 404.50 C 608.59 406.52, 619.63 413.63, 631.00 417.50 C 631.44 417.65, 631.57 416.32, 632.00 416.50 C 639.92 419.86, 648.75 423.00, 655.75 428.00 C 673.90 440.95, 693.93 454.61, 708.75 471.27 C 725.01 489.55, 740.27 512.28, 750.50 534.50 C 761.92 559.32, 770.66 588.24, 775.00 615.21 C 780.51 649.50, 782.90 687.01, 780.58 721.67 C 778.84 747.69, 770.94 775.27, 762.64 800.00 C 755.40 821.59, 744.54 843.46, 733.11 863.15 C 724.56 877.89, 711.87 890.61, 702.00 904.50 C 701.73 904.88, 703.32 905.16, 703.00 905.50 C 699.20 909.47, 694.38 912.62, 690.50 916.50 C 690.24 916.76, 691.30 917.29, 691.00 917.50 C 673.37 930.18, 655.69 944.44, 636.79 955.13 C 625.94 961.27, 612.85 965.40, 600.78 968.52 C 585.66 972.43, 569.26 975.76, 553.67 976.61 C 534.37 977.66, 514.05 976.14, 494.81 974.27 C 476.43 972.48, 457.20 969.85, 439.25 965.50 C 427.52 962.66, 416.42 956.39, 405.00 952.50 C 404.56 952.35, 404.43 953.69, 404.00 953.50 C 395.90 949.96, 387.20 946.39, 379.83 941.50 C 363.62 930.74, 345.99 919.53, 332.17 905.83 C 318.63 892.42, 306.06 875.54, 296.58 859.00 C 286.49 841.39, 278.83 820.99, 272.50 801.71 C 267.32 785.92, 263.62 768.60, 261.50 752.12 C 257.15 718.34, 253.61 683.03, 252.84 648.98 C 252.50 633.81, 254.53 617.24, 258.12 602.50 C 262.30 585.30, 277.77 568.54, 276.69 550.87 C 275.26 527.33, 259.18 504.55, 250.83 482.50" fill="none" stroke="black" stroke-width="45" stroke-linecap="round" stroke-linejoin="round" />
    <path id="path-4-1" d="M 276.69 550.87 C 275.19 552.93, 267.55 567.71, 265.76 565.88 C 261.87 561.90, 266.71 547.83, 268.58 542.58 C 268.80 541.98, 274.55 539.54, 275.00 540.00 C 275.09 540.09, 276.74 550.99, 276.69 550.87 C 267.35 528.64, 259.36 505.05, 250.83 482.50" fill="none" stroke="black" stroke-width="45" stroke-linecap="round" stroke-linejoin="round" />
  </g>
</svg>