<?xml version='1.0' encoding='utf-8'?>
<svg xmlns="http://www.w3.org/2000/svg" width="1024" height="1024" viewBox="0 0 1024 1024" preserveAspectRatio="none">
  <g id="skeleton-shapes">
    <path id="path-1-1" d="M 618.91 528.15 C 597.76 521.33, 576.36 512.34, 554.68 507.45 C 546.50 505.61, 536.89 506.85, 528.55 507.77 C 521.78 508.52, 512.10 508.52, 506.77 512.75 C 505.48 513.77, 511.52 519.18, 512.50 520.50" fill="none" stroke="black" stroke-width="45" stroke-linecap="round" stroke-linejoin="round" />
    <path id="path-2-1" d="M 618.91 528.15 C 625.85 533.86, 632.52 540.48, 639.97 545.50 C 654.53 555.30, 671.22 562.80, 685.50 573.00 C 694.91 579.72, 703.37 588.58, 711.60 596.70 C 715.69 600.73, 719.62 605.36, 723.00 610.00 C 727.94 616.77, 733.16 623.95, 736.93 631.43 C 742.50 642.48, 747.44 654.53, 751.34 666.28 C 753.91 674.04, 755.24 682.58, 756.56 690.64 C 758.08 699.91, 759.53 709.61, 760.00 719.00 C 760.67 732.47, 760.91 746.55, 760.00 760.00 C 759.31 770.16, 757.09 780.60, 755.13 790.60 C 753.51 798.87, 751.64 807.45, 749.13 815.50 C 746.48 824.00, 743.26 832.77, 739.48 840.83 C 735.71 848.87, 730.99 856.87, 726.23 864.35 C 721.63 871.55, 716.70 879.14, 711.00 885.50 C 699.70 898.10, 687.69 911.40, 674.50 922.00 C 660.67 933.12, 644.43 942.46, 629.08 951.38 C 621.31 955.89, 612.56 959.55, 604.20 962.86 C 595.22 966.42, 585.73 970.23, 576.30 972.30 C 561.12 975.63, 544.99 978.05, 529.50 979.25 C 517.18 980.21, 504.22 979.57, 491.88 978.85 C 483.42 978.35, 474.73 976.80, 466.34 975.57 C 460.07 974.65, 453.45 974.01, 447.33 972.33 C 434.72 968.87, 421.77 964.69, 409.56 960.00 C 398.54 955.77, 387.27 950.76, 376.81 945.27 C 365.78 939.48, 353.23 933.87, 343.95 925.58 C 334.42 917.06, 327.93 904.74, 320.14 894.61" fill="none" stroke="black" stroke-width="45" stroke-linecap="round" stroke-linejoin="round" />
    <path id="path-3-1" d="M 618.91 528.15 C 625.75 528.42, 633.70 531.01, 640.25 529.00 C 640.33 528.98, 633.33 523.75, 633.25 523.75 C 628.34 523.55, 623.72 529.15, 618.91 528.15 C 597.17 523.64, 575.82 514.26, 554.68 507.45" fill="none" stroke="black" stroke-width="45" stroke-linecap="round" stroke-linejoin="round" />
    <path id="path-4-1" d="M 618.91 528.15 C 622.22 515.60, 630.30 501.93, 629.22 489.00 C 629.21 488.87, 616.10 493.87, 616.06 494.00 C 613.97 501.96, 626.95 526.38, 618.91 528.15 C 598.64 532.59, 574.44 513.82, 554.68 507.45" fill="none" stroke="black" stroke-width="45" stroke-linecap="round" stroke-linejoin="round" />
    <path id="path-5-1" d="M 618.91 528.15 C 626.20 508.34, 629.43 484.62, 641.33 467.19 C 649.51 455.20, 666.71 450.02, 678.26 441.22 C 682.76 437.79, 687.18 433.65, 690.93 429.41 C 698.44 420.93, 706.43 412.03, 712.54 402.50 C 719.50 391.63, 725.93 379.43, 730.65 367.42 C 735.33 355.50, 738.39 342.30, 741.09 329.78 C 742.82 321.78, 743.71 313.17, 744.12 305.00 C 744.72 292.90, 745.18 280.19, 744.15 268.12 C 742.51 248.84, 740.03 228.75, 736.00 209.83 C 733.31 197.22, 728.48 184.44, 723.79 172.43 C 720.42 163.82, 715.91 155.26, 711.50 147.14 C 708.63 141.85, 705.10 136.67, 701.67 131.72 C 696.86 124.76, 691.96 117.45, 686.50 111.00 C 682.79 106.62, 678.36 102.36, 673.83 98.83 C 662.41 89.94, 650.32 80.92, 638.04 73.25 C 630.37 68.46, 621.64 64.58, 613.32 61.05 C 606.43 58.12, 598.95 55.94, 591.83 53.65 C 586.74 52.03, 581.47 50.16, 576.22 49.17 C 565.10 47.06, 553.42 44.86, 542.12 44.23 C 525.52 43.30, 508.17 43.46, 491.57 44.43 C 480.28 45.08, 468.55 46.94, 457.45 49.14 C 448.34 50.94, 439.08 53.80, 430.20 56.56 C 421.81 59.17, 413.17 62.10, 405.04 65.44 C 396.30 69.04, 387.38 73.16, 379.05 77.60 C 370.85 81.97, 362.45 86.86, 354.84 92.20 C 347.29 97.50, 340.28 104.03, 333.12 109.84" fill="none" stroke="black" stroke-width="45" stroke-linecap="round" stroke-linejoin="round" />
    <path id="path-6-1" d="M 320.14 894.61 C 330.12 895.56, 340.48 897.82, 350.50 897.50 C 350.52 897.50, 339.02 894.00, 339.00 894.00 C 338.94 893.99, 320.08 894.59, 320.14 894.61 C 329.67 897.51, 340.58 896.56, 350.50 897.50" fill="none" stroke="black" stroke-width="45" stroke-linecap="round" stroke-linejoin="round" />
    <path id="path-7-1" d="M 320.14 894.61 C 318.82 891.38, 318.39 887.04, 316.00 884.50 C 315.90 884.39, 304.45 877.87, 304.50 878.00 C 306.94 883.96, 314.21 892.10, 320.14 894.61 C 329.19 898.45, 340.71 896.57, 350.50 897.50" fill="none" stroke="black" stroke-width="45" stroke-linecap="round" stroke-linejoin="round" />
    <path id="path-8-1" d="M 320.14 894.61 C 321.07 899.61, 320.88 905.38, 323.00 910.00 C 323.02 910.04, 329.49 914.98, 329.48 914.94 C 328.48 909.54, 315.92 898.11, 320.14 894.61 C 326.75 889.13, 341.96 896.69, 350.50 897.50" fill="none" stroke="black" stroke-width="45" stroke-linecap="round" stroke-linejoin="round" />
    <path id="path-9-1" d="M 320.14 894.61 C 316.92 895.66, 313.03 898.68, 309.71 898.00 C 309.68 897.99, 303.42 891.20, 303.45 891.20 C 319.03 891.01, 335.06 895.43, 350.50 897.50" fill="none" stroke="black" stroke-width="45" stroke-linecap="round" stroke-linejoin="round" />
    <path id="path-10-1" d="M 320.14 894.61 C 310.89 889.23, 300.28 884.93, 291.96 878.22 C 290.14 876.75, 292.37 872.98, 291.00 871.10 C 289.18 868.59, 285.09 868.38, 283.09 866.02 C 278.92 861.12, 275.15 855.11, 272.44 849.28 C 269.36 842.62, 269.26 834.40, 265.52 828.09 C 264.44 826.26, 260.04 828.82, 259.19 826.88 C 257.66 823.40, 259.50 818.56, 259.65 814.77" fill="none" stroke="black" stroke-width="45" stroke-linecap="round" stroke-linejoin="round" />
    <path id="path-11-1" d="M 333.12 109.84 C 332.29 110.86, 328.09 116.00, 328.09 116.00 C 328.09 116.00, 332.14 110.72, 333.12 109.84 C 340.02 103.71, 347.68 98.02, 354.84 92.20" fill="none" stroke="black" stroke-width="45" stroke-linecap="round" stroke-linejoin="round" />
    <path id="path-12-1" d="M 333.12 109.84 C 321.38 122.01, 308.49 133.90, 297.50 146.75 C 295.54 149.04, 296.34 153.15, 294.23 155.31 C 292.26 157.31, 287.09 155.91, 286.00 158.50 C 284.77 161.42, 289.85 164.59, 289.05 167.66 C 288.49 169.77, 283.85 168.33, 282.90 170.30 C 281.55 173.09, 280.61 179.33, 282.06 182.06 C 283.08 184.00, 287.85 183.26, 290.00 183.70" fill="none" stroke="black" stroke-width="45" stroke-linecap="round" stroke-linejoin="round" />
  </g>
</svg>