<?xml version='1.0' encoding='utf-8'?>
<svg xmlns="http://www.w3.org/2000/svg" width="1024" height="1024" viewBox="0 0 1024 1024" preserveAspectRatio="none">
  <g id="skeleton-shapes">
    <path id="path-1-1" d="M 202.26 60.63 C 193.98 61.70, 183.58 59.97, 176.27 64.00 C 174.94 64.73, 177.49 72.58, 178.33 73.83 C 179.80 76.02, 184.39 75.22, 185.43 77.64 C 185.99 78.95, 184.90 92.46, 185.90 91.45 C 191.72 85.56, 205.00 68.44, 202.26 60.63 C 200.53 55.70, 181.45 63.33, 176.27 64.00" fill="none" stroke="black" stroke-width="45" stroke-linecap="round" stroke-linejoin="round" />
    <path id="path-2-1" d="M 202.26 60.63 C 196.45 88.74, 185.23 117.80, 184.50 146.50 C 179.37 349.32, 171.64 560.03, 184.50 762.50 C 185.47 777.76, 214.29 788.09, 225.89 798.05" fill="none" stroke="black" stroke-width="45" stroke-linecap="round" stroke-linejoin="round" />
    <path id="path-3-1" d="M 202.26 60.63 C 215.17 71.31, 228.88 81.86, 241.39 93.00 C 243.27 94.67, 245.17 101.77, 247.57 101.00 C 252.67 99.37, 255.39 91.56, 258.81 87.44" fill="none" stroke="black" stroke-width="45" stroke-linecap="round" stroke-linejoin="round" />
    <path id="path-4-1" d="M 258.81 87.44 C 429.43 198.84, 607.76 309.96, 775.90 425.06 C 784.10 430.67, 786.86 443.78, 791.89 452.36" fill="none" stroke="black" stroke-width="45" stroke-linecap="round" stroke-linejoin="round" />
    <path id="path-5-1" d="M 791.89 452.36 C 795.68 450.50, 799.55 446.97, 803.75 446.55 C 803.87 446.54, 795.62 452.04, 795.50 452.00 C 792.77 451.18, 791.31 445.18, 790.33 442.50 C 790.32 442.47, 788.50 432.72, 788.50 432.75 C 788.68 433.89, 792.87 452.96, 791.89 452.36 C 783.51 447.24, 780.86 433.53, 775.90 425.06" fill="none" stroke="black" stroke-width="45" stroke-linecap="round" stroke-linejoin="round" />
    <path id="path-6-1" d="M 791.89 452.36 C 786.70 464.56, 785.88 486.44, 774.50 493.25 C 728.72 520.64, 672.05 530.05, 623.85 552.90 C 619.52 554.95, 622.32 563.64, 618.90 567.00 C 615.22 570.63, 607.90 568.72, 604.17 572.29 C 602.42 573.97, 606.09 577.70, 605.33 580.00 C 603.53 585.49, 597.88 589.61, 596.62 595.25 C 596.04 597.86, 598.63 601.70, 600.00 604.00 C 604.97 612.36, 611.32 620.19, 616.38 628.50 C 658.39 697.61, 702.56 768.37, 742.62 838.62 C 746.47 845.36, 746.27 854.12, 749.14 861.32 C 750.33 864.30, 758.39 870.37, 756.25 872.75 C 743.23 887.24, 723.50 896.18, 707.66 907.51" fill="none" stroke="black" stroke-width="45" stroke-linecap="round" stroke-linejoin="round" />
    <path id="path-7-1" d="M 707.66 907.51 C 707.88 907.42, 730.58 898.44, 730.40 898.60 C 718.32 909.16, 702.71 919.04, 687.78 924.89 C 687.61 924.95, 707.52 907.62, 707.66 907.51 C 721.24 896.99, 735.88 886.98, 749.77 876.88" fill="none" stroke="black" stroke-width="45" stroke-linecap="round" stroke-linejoin="round" />
    <path id="path-8-1" d="M 707.66 907.51 C 694.88 916.90, 682.24 927.43, 668.90 936.00 C 655.03 944.90, 639.39 951.80, 625.31 960.38 C 622.68 961.98, 621.07 966.74, 618.00 967.00 C 614.17 967.33, 611.29 961.23, 607.50 961.90 C 605.19 962.31, 607.00 967.69, 605.25 969.25 C 604.26 970.14, 599.19 971.08, 598.18 970.21 C 592.69 965.49, 590.27 957.62, 585.45 952.21 C 581.53 947.81, 574.91 945.53, 571.77 940.55 C 521.34 860.46, 475.88 773.82, 423.50 695.00 C 421.29 691.67, 415.90 703.72, 412.75 701.25 C 407.75 697.33, 409.69 687.60, 406.83 681.92 C 406.65 681.54, 403.47 681.87, 403.17 682.17 C 400.78 684.52, 400.63 689.52, 397.62 691.00 C 393.63 692.97, 388.30 690.44, 384.00 691.62 C 380.65 692.55, 377.28 695.14, 374.58 697.33 C 354.80 713.45, 336.62 733.12, 315.50 747.43 C 287.43 766.44, 255.41 781.37, 225.89 798.05" fill="none" stroke="black" stroke-width="45" stroke-linecap="round" stroke-linejoin="round" />
    <path id="path-9-1" d="M 225.89 798.05 C 248.39 786.53, 274.89 757.50, 300.04 760.09 C 301.68 760.26, 254.42 800.08, 252.94 800.83 C 252.84 800.89, 225.80 798.13, 225.89 798.05 C 251.48 776.20, 286.20 763.98, 315.50 747.43" fill="none" stroke="black" stroke-width="45" stroke-linecap="round" stroke-linejoin="round" />
    <path id="path-10-1" d="M 225.89 798.05 C 215.24 800.67, 202.67 800.84, 193.06 806.12 C 193.06 806.13, 188.55 818.60, 188.55 818.60 C 231.81 797.86, 273.65 770.89, 315.50 747.43" fill="none" stroke="black" stroke-width="45" stroke-linecap="round" stroke-linejoin="round" />
    <path id="path-11-1" d="M 225.89 798.05 C 210.45 813.38, 187.89 826.31, 177.92 845.65 C 176.41 848.59, 192.25 856.13, 195.25 857.50 C 195.92 857.80, 198.48 855.84, 198.81 855.19 C 208.08 837.20, 211.02 811.78, 225.89 798.05 C 250.51 775.32, 286.32 763.91, 315.50 747.43" fill="none" stroke="black" stroke-width="45" stroke-linecap="round" stroke-linejoin="round" />
    <path id="path-12-1" d="M 225.89 798.05 C 228.04 804.29, 228.06 813.36, 232.75 818.00 C 232.87 818.11, 240.55 812.65, 240.50 812.50 C 238.98 808.09, 222.37 801.10, 225.89 798.05 C 251.29 776.02, 286.22 763.97, 315.50 747.43" fill="none" stroke="black" stroke-width="45" stroke-linecap="round" stroke-linejoin="round" />
    <path id="path-13-1" d="M 225.89 798.05 C 247.76 782.13, 271.65 767.28, 292.25 749.75 C 294.30 748.01, 293.14 743.16, 293.50 740.50" fill="none" stroke="black" stroke-width="45" stroke-linecap="round" stroke-linejoin="round" />
  </g>
</svg>