<?xml version='1.0' encoding='utf-8'?>
<svg xmlns="http://www.w3.org/2000/svg" width="1024" height="1024" viewBox="0 0 1024 1024" preserveAspectRatio="none">
  <g id="skeleton-shapes">
    <path id="path-1-1" d="M 754.50 150.33 C 753.60 151.39, 750.88 156.67, 749.71 155.92 C 742.93 151.61, 737.90 143.32, 733.20 136.80 C 731.41 134.31, 731.82 130.37, 729.71 128.14 C 727.51 125.81, 723.45 125.85, 720.95 123.83 C 714.58 118.67, 709.97 110.82, 703.00 106.50 C 701.18 105.37, 698.73 110.27, 697.00 109.00 C 695.08 107.59, 697.86 103.55, 696.41 101.66 C 694.80 99.55, 690.99 100.04, 688.90 98.40 C 686.66 96.65, 685.82 93.36, 683.57 91.64 C 676.49 86.21, 668.60 81.05, 660.74 76.83 C 648.56 70.27, 635.65 63.37, 622.58 58.83 C 607.77 53.69, 591.49 49.33, 575.94 47.38 C 561.20 45.53, 545.21 45.95, 530.42 47.27 C 518.31 48.35, 505.90 51.73, 494.10 54.68 C 488.47 56.09, 483.11 59.01, 477.50 60.50 C 476.93 60.65, 476.54 59.26, 476.00 59.50 C 459.90 66.55, 442.92 73.52, 427.70 82.30 C 410.63 92.14, 393.39 103.70, 378.00 116.00 C 365.01 126.38, 352.54 138.82, 341.47 151.23 C 332.29 161.52, 323.85 173.38, 316.44 185.00 C 308.91 196.79, 301.60 209.62, 296.00 222.44 C 287.40 242.15, 279.35 263.16, 273.30 283.80 C 267.83 302.44, 264.53 322.44, 261.06 341.56 C 259.02 352.74, 257.50 364.47, 256.58 375.80 C 253.81 410.05, 245.89 446.56, 249.81 480.69 C 252.59 504.94, 267.96 528.07, 276.69 550.87" fill="none" stroke="black" stroke-width="45" stroke-linecap="round" stroke-linejoin="round" />
    <path id="path-2-1" d="M 276.69 550.87 C 271.46 559.54, 265.04 568.03, 260.78 577.22 C 260.77 577.23, 258.95 589.15, 258.95 589.14 C 265.48 578.33, 277.65 563.46, 276.69 550.87 C 274.90 527.30, 259.19 504.60, 250.83 482.50" fill="none" stroke="black" stroke-width="45" stroke-linecap="round" stroke-linejoin="round" />
    <path id="path-3-1" d="M 276.69 550.87 C 298.01 525.00, 318.72 497.17, 341.34 472.44 C 352.48 460.27, 365.89 448.95, 379.05 439.00 C 388.66 431.73, 399.82 425.26, 410.67 420.02 C 423.51 413.82, 437.48 407.58, 451.30 404.10 C 468.71 399.71, 487.66 397.26, 505.58 396.11 C 521.25 395.10, 537.86 395.89, 553.48 397.52 C 567.07 398.94, 580.68 403.16, 594.17 405.33 C 595.05 405.48, 595.90 404.22, 596.75 404.50 C 608.23 408.29, 619.56 413.60, 631.00 417.50 C 631.44 417.65, 631.57 416.32, 632.00 416.50 C 639.98 419.88, 648.34 423.51, 655.75 428.00 C 665.57 433.95, 675.42 440.91, 684.31 448.17 C 692.86 455.15, 701.28 463.14, 708.75 471.27 C 715.87 479.03, 722.84 487.68, 728.64 496.46 C 736.58 508.49, 744.29 521.50, 750.50 534.50 C 755.63 545.24, 759.59 557.15, 763.05 568.55 C 767.65 583.70, 772.31 599.61, 775.00 615.21 C 778.17 633.58, 779.84 652.97, 780.82 671.58 C 781.68 688.02, 781.72 705.24, 780.58 721.67 C 779.64 735.26, 777.54 749.47, 774.50 762.75 C 771.63 775.27, 767.12 787.96, 762.64 800.00 C 757.72 813.24, 751.94 826.70, 745.96 839.50 C 742.21 847.52, 737.68 855.57, 733.11 863.15 C 728.45 870.88, 723.37 878.77, 717.94 885.97 C 713.09 892.42, 706.90 898.09, 702.00 904.50 C 701.72 904.87, 703.30 905.14, 703.00 905.50 C 699.41 909.74, 695.25 913.92, 691.00 917.50 C 680.53 926.32, 669.54 935.36, 658.29 943.17 C 651.68 947.75, 644.15 951.89, 636.79 955.13 C 625.27 960.21, 612.97 965.37, 600.78 968.52 C 585.60 972.44, 569.27 975.11, 553.67 976.61 C 541.88 977.74, 529.45 976.97, 517.62 976.50 C 510.08 976.20, 502.30 975.22, 494.81 974.27 C 482.85 972.75, 470.49 971.21, 458.64 969.02 C 452.96 967.98, 447.43 965.53, 441.75 964.50 C 440.88 964.34, 440.09 965.77, 439.25 965.50 C 427.76 961.75, 416.44 956.40, 405.00 952.50 C 404.56 952.35, 404.43 953.69, 404.00 953.50 C 395.87 949.95, 387.48 946.00, 379.83 941.50 C 370.11 935.78, 360.32 929.24, 351.28 922.48 C 344.60 917.48, 338.29 911.49, 332.17 905.83 C 328.34 902.30, 324.15 898.65, 321.00 894.50 C 312.42 883.21, 303.91 871.14, 296.58 859.00 C 292.07 851.52, 288.48 843.05, 285.10 835.00 C 280.56 824.21, 275.71 812.96, 272.50 801.71 C 267.93 785.65, 264.05 768.62, 261.50 752.12 C 257.48 726.11, 254.75 698.99, 252.55 672.76 C 251.90 664.99, 252.23 656.75, 252.84 648.98 C 254.06 633.63, 255.31 617.64, 258.12 602.50 C 258.51 600.38, 261.65 599.53, 262.38 597.50 C 267.56 583.09, 278.22 566.10, 276.69 550.87 C 274.33 527.28, 259.22 504.68, 250.83 482.50" fill="none" stroke="black" stroke-width="45" stroke-linecap="round" stroke-linejoin="round" />
    <path id="path-4-1" d="M 276.69 550.87 C 275.19 552.93, 267.55 567.71, 265.76 565.88 C 261.87 561.90, 266.71 547.83, 268.58 542.58 C 268.80 541.98, 274.55 539.54, 275.00 540.00 C 275.09 540.09, 276.74 550.99, 276.69 550.87 C 267.35 528.64, 259.36 505.05, 250.83 482.50" fill="none" stroke="black" stroke-width="45" stroke-linecap="round" stroke-linejoin="round" />
  </g>
</svg>